<svg xmlns="http://www.w3.org/2000/svg" version="1.1" xmlns:xlink="http://www.w3.org/1999/xlink" xmlns:svgjs="http://svgjs.dev/svgjs" width="1500" height="1500" viewBox="0 0 1500 1500"><rect width="1500" height="1500" fill="#ffffff"></rect><g transform="matrix(0.6666666666666666,0,0,0.6666666666666666,249.39393939393938,593.5894183433425)"><svg viewBox="0 0 396 124" data-background-color="#ffffff" preserveAspectRatio="xMidYMid meet" height="469" width="1500" xmlns="http://www.w3.org/2000/svg" xmlns:xlink="http://www.w3.org/1999/xlink"><g id="tight-bounds" transform="matrix(1,0,0,1,0.2400000000000091,0.030635795604069926)"><svg viewBox="0 0 395.52 123.93872840879187" height="123.93872840879187" width="395.52"><g><svg viewBox="0 0 624.7202140226983 195.76008529844646" height="123.93872840879187" width="395.52"><g transform="matrix(1,0,0,1,0,27.0551203270646)"><svg viewBox="0 0 395.52 141.64984464431726" height="141.64984464431726" width="395.52"><g id="textblocktransform"><svg viewBox="0 0 395.52 141.64984464431726" height="141.64984464431726" width="395.52" id="textblock"><g><svg viewBox="0 0 395.52 141.64984464431726" height="141.64984464431726" width="395.52"><g transform="matrix(1,0,0,1,0,0)"><svg width="395.52" viewBox="5.35 -42.95 122.29 43.800000000000004" height="141.64984464431726" data-palette-color="#4d7e3e"><path d="M35.35-37.9L40.7-37.9 40.7 0 35.85 0 35.85-30.55 24.25-14.4 21.7-14.4 10.2-30.55 10.2 0 5.35 0 5.35-37.9 10.65-37.9 23-20.6 35.35-37.9ZM59.05-27.65Q63.45-27.65 65.75-26.18 68.05-24.7 68.8-22.23 69.55-19.75 69.55-16L69.55-16 69.55 0 64.85 0 64.85-2.75Q62.95-0.95 61.05-0.15 59.15 0.65 56.95 0.65L56.95 0.65Q54.35 0.65 52.25-0.48 50.15-1.6 48.92-3.73 47.7-5.85 47.7-8.75L47.7-8.75Q47.7-13.25 50.5-15.73 53.3-18.2 58.05-18.2L58.05-18.2Q61.8-18.2 64.8-16.55L64.8-16.55Q64.75-19 64.3-20.45 63.85-21.9 62.45-22.68 61.05-23.45 58.3-23.45L58.3-23.45 54.6-23.45 54.6-27.65 59.05-27.65ZM57.6-3.4Q59.3-3.4 61.17-4.2 63.05-5 64.85-6.6L64.85-6.6 64.85-12.9Q62.05-14.3 58.75-14.3L58.75-14.3Q56.1-14.3 54.3-13.03 52.5-11.75 52.5-8.75L52.5-8.75Q52.5-5.95 54.02-4.67 55.55-3.4 57.6-3.4L57.6-3.4ZM85.7 0.85Q82.65 0.85 80.3 0.35 77.95-0.15 75.4-1.35L75.4-1.35 75.4-6Q80.15-3.35 85.7-3.35L85.7-3.35Q88.5-3.35 89.72-4.48 90.95-5.6 90.95-7.45L90.95-7.45Q90.95-9.25 89.97-10.1 89-10.95 86.8-11.55L86.8-11.55 83.55-12.35Q80.05-13.2 78.05-15.05 76.05-16.9 76.05-20.5L76.05-20.5Q76.05-24.25 78.5-26.35 80.95-28.45 85.7-28.45L85.7-28.45Q88.15-28.45 90.25-27.98 92.35-27.5 94.45-26.65L94.45-26.65 94.45-22.25Q92.4-23.2 90.4-23.73 88.4-24.25 85.85-24.25L85.85-24.25Q83.2-24.25 82.02-23.23 80.85-22.2 80.85-20.65L80.85-20.65Q80.85-18.95 81.87-18.07 82.9-17.2 84.85-16.7L84.85-16.7 88.15-15.95Q90.65-15.35 92.27-14.45 93.9-13.55 94.82-11.93 95.75-10.3 95.75-7.6L95.75-7.6Q95.75-3.55 93.02-1.35 90.3 0.85 85.7 0.85L85.7 0.85ZM102.99-32.85L102.99-40.4 107.69-40.4 107.69-32.85 102.99-32.85ZM102.99 0L102.99-27.65 107.69-27.65 107.69 0 102.99 0ZM125.14-38.6Q123.39-38.6 122.77-37.88 122.14-37.15 122.14-35.15L122.14-35.15 122.14-27.65 127.64-27.65 127.64-23.25 122.14-23.25 122.14 0 117.44 0 117.44-23.25 114.04-23.25 114.04-27.65 117.44-27.65 117.44-36.4Q117.44-39.95 119.09-41.45 120.74-42.95 124.49-42.95L124.49-42.95Q125.69-42.95 127.64-42.6L127.64-42.6 127.64-38.3Q126.49-38.6 125.14-38.6L125.14-38.6Z" opacity="1" transform="matrix(1,0,0,1,0,0)" fill="#4d7e3e" class="wordmark-text-0" data-fill-palette-color="primary" id="text-0"></path></svg></g></svg></g></svg></g></svg></g><g transform="matrix(1,0,0,1,428.96012872425183,0)"><svg viewBox="0 0 195.76008529844646 195.76008529844646" height="195.76008529844646" width="195.76008529844646"><g data-palette-color="#4d7e3e"><rect width="53.50775664824204" height="195.76008529844646" fill="#4d7e3e" stroke="transparent" data-fill-palette-color="accent" x="0" fill-opacity="1"></rect><rect width="53.50775664824204" height="195.76008529844646" fill="#4d7e3e" stroke="transparent" data-fill-palette-color="accent" x="65.25336176614883" fill-opacity="0.75"></rect><rect width="53.50775664824204" height="195.76008529844646" fill="#4d7e3e" stroke="transparent" data-fill-palette-color="accent" x="130.50672353229766" fill-opacity="0.5"></rect></g></svg></g></svg></g><defs></defs></svg><rect width="395.52" height="123.93872840879187" fill="none" stroke="none" visibility="hidden"></rect></g></svg></g></svg>